<?xml version="1.0" standalone="no"?><!DOCTYPE svg PUBLIC "-//W3C//DTD SVG 1.1//EN" "http://www.w3.org/Graphics/SVG/1.1/DTD/svg11.dtd"><svg t="1676427456481" class="icon" viewBox="0 0 1024 1024" version="1.1" xmlns="http://www.w3.org/2000/svg" p-id="3482" xmlns:xlink="http://www.w3.org/1999/xlink" width="200" height="200"><path d="M943.3 277.7c-20.1-20.1-53-20.1-73.1 0L512 635.9 153.8 277.7c-20.1-20.1-53-20.1-73.1 0-20.1 20.1-20.1 53 0 73.1l387.4 387.4c1.9 2.9 4.1 5.6 6.6 8.1 10.2 10.2 23.8 15.2 37.3 15 13.5 0.2 27-4.8 37.3-15 2.5-2.5 4.7-5.3 6.6-8.1l387.4-387.4c20.1-20.1 20.1-53 0-73.1z" p-id="3483" fill="#6A7787"></path></svg>