<?xml version="1.0" standalone="no"?><!DOCTYPE svg PUBLIC "-//W3C//DTD SVG 1.1//EN" "http://www.w3.org/Graphics/SVG/1.1/DTD/svg11.dtd"><svg t="1676871951769" class="icon" viewBox="0 0 1024 1024" version="1.1" xmlns="http://www.w3.org/2000/svg" p-id="3894" xmlns:xlink="http://www.w3.org/1999/xlink" width="200" height="200"><path d="M512 65.1C265.2 65.1 65.1 265.2 65.1 512S265.2 958.9 512 958.9 958.9 758.8 958.9 512 758.8 65.1 512 65.1zM740.7 736c-24.5 25.3-65.1 25.9-90.4 1.5l-139.5-135-133.6 138c-24.3 25.1-64.7 25.8-89.8 1.5l-0.5-0.5c-25.1-24.3-25.8-64.7-1.5-89.8l133.6-138-138.2-133.9c-25.3-24.5-25.9-65.1-1.5-90.4 24.5-25.3 65.1-25.9 90.4-1.5l138.1 133.7L642 283.1c24.3-25.1 64.7-25.8 89.8-1.5l0.5 0.5c25.1 24.3 25.8 64.7 1.5 89.8L599.7 510.6l139.5 135c25.3 24.5 25.9 65.1 1.5 90.4z" p-id="3895" fill="#ec5048"></path></svg>