<?xml version="1.0" standalone="no"?><!DOCTYPE svg PUBLIC "-//W3C//DTD SVG 1.1//EN" "http://www.w3.org/Graphics/SVG/1.1/DTD/svg11.dtd"><svg t="1676268483175" class="icon" viewBox="0 0 1024 1024" version="1.1" xmlns="http://www.w3.org/2000/svg" p-id="4489" xmlns:xlink="http://www.w3.org/1999/xlink" width="200" height="200"><path d="M728.8 190.2c-92.3 0-173.3-50.6-216.7-125.4h-0.1c-43.4 74.8-124.4 125.4-216.7 125.4H128v384.9c0 129.7 53.1 266.4 164.3 314.5 72.3 31.2 125.6 44.5 219.7 69.5 94.1-25.1 147.4-38.3 219.7-69.5C842.9 841.6 896 704.9 896 575.2v-385H728.8zM482.1 679.3L292.3 516.6l53.3-41.3 99.8 73.3s129.1-148 262-210.7l21.9 24S554.7 504.6 482.1 679.3z" p-id="4490" fill="#C7CEDD"></path></svg>