<?xml version="1.0" standalone="no"?><!DOCTYPE svg PUBLIC "-//W3C//DTD SVG 1.1//EN" "http://www.w3.org/Graphics/SVG/1.1/DTD/svg11.dtd"><svg t="1676268454577" class="icon" viewBox="0 0 1024 1024" version="1.1" xmlns="http://www.w3.org/2000/svg" p-id="4089" xmlns:xlink="http://www.w3.org/1999/xlink" width="200" height="200"><path d="M365.5 64.3H178c-62.8 0-114.1 51.3-114.1 114.1v187.5C63.9 428.7 115.3 480 178 480h187.5c62.8 0 114.1-51.3 114.1-114.1V178.4c0-62.7-51.3-114.1-114.1-114.1zM365.5 544H178c-62.8 0-114.1 51.3-114.1 114.1v187.5c0 62.8 51.3 114.1 114.1 114.1h187.5c62.8 0 114.1-51.3 114.1-114.1V658.1c0-62.8-51.3-114.1-114.1-114.1zM872.8 65.5H630.4c-48 0-87.3 39.3-87.3 87.3s39.3 87.3 87.3 87.3h242.3c48 0 87.3-39.3 87.3-87.3 0.1-48-39.2-87.3-87.2-87.3zM630.4 479.5h242.3c48 0 87.3-39.3 87.3-87.3s-39.3-87.3-87.3-87.3H630.4c-48 0-87.3 39.3-87.3 87.3s39.3 87.3 87.3 87.3zM872.8 544.8H630.4c-48 0-87.3 39.3-87.3 87.3s39.3 87.3 87.3 87.3h242.3c48 0 87.3-39.3 87.3-87.3 0.1-48-39.2-87.3-87.2-87.3zM872.8 784.2H630.4c-48 0-87.3 39.3-87.3 87.3s39.3 87.3 87.3 87.3h242.3c48 0 87.3-39.3 87.3-87.3 0.1-48-39.2-87.3-87.2-87.3z" p-id="4090" fill="#C7CEDD"></path></svg>