<?xml version="1.0" standalone="no"?><!DOCTYPE svg PUBLIC "-//W3C//DTD SVG 1.1//EN" "http://www.w3.org/Graphics/SVG/1.1/DTD/svg11.dtd"><svg t="1676274558680" class="icon" viewBox="0 0 1024 1024" version="1.1" xmlns="http://www.w3.org/2000/svg" p-id="4826" xmlns:xlink="http://www.w3.org/1999/xlink" width="200" height="200"><path d="M503.3 593.8c-3.9 0-7.9-0.1-11.8-0.2-56.6-1.8-113.5-16.7-169.2-44.3-43.3-21.4-86-50.6-126.8-86.6-68.7-60.6-109-120.3-110.7-122.8-15.4-22.9-9.2-54 13.7-69.4 22.9-15.4 54-9.2 69.3 13.7 0.9 1.3 36.5 53.5 95.8 105.3 52.5 45.9 135.3 101.2 231.5 104.1 115.3 3.5 229.7-67.8 340.3-212 16.8-21.9 48.2-26.1 70.1-9.2s26.1 48.2 9.3 70.1C846.2 432 773.8 498.4 699.5 540c-63.7 35.7-129.6 53.8-196.2 53.8z" p-id="4827" fill="#C7CEDD"></path><path d="M115.8 643c-9 0-18.1-3-25.5-9.2-17-14.1-19.3-39.3-5.2-56.3l109.3-131.6c14.1-17 39.3-19.3 56.3-5.2 17 14.1 19.3 39.3 5.2 56.3L146.6 628.6c-7.9 9.5-19.3 14.4-30.8 14.4zM379.7 761.9c-3.7 0-7.5-0.5-11.3-1.6-21.2-6.2-33.3-28.5-27.1-49.7l41.4-140.8c6.2-21.2 28.5-33.3 49.7-27.1 21.2 6.2 33.3 28.5 27.1 49.7L418 733.2c-5.1 17.4-21 28.7-38.3 28.7zM689.5 758.1c-14.5 0-28.6-8-35.6-21.8l-74.5-145.8c-10.1-19.7-2.3-43.8 17.4-53.8 19.7-10.1 43.8-2.3 53.8 17.4l74.5 145.8c10.1 19.7 2.3 43.8-17.4 53.8-5.8 3-12.1 4.4-18.2 4.4zM908.2 649c-11.7 0-23.3-5.1-31.2-14.9L763.9 493.9c-13.9-17.2-11.2-42.4 6-56.2 17.2-13.9 42.4-11.2 56.2 6l113.1 140.2c13.9 17.2 11.2 42.4-6 56.2-7.3 6-16.2 8.9-25 8.9z" p-id="4828" fill="#C7CEDD"></path></svg>