<?xml version="1.0" standalone="no"?><!DOCTYPE svg PUBLIC "-//W3C//DTD SVG 1.1//EN" "http://www.w3.org/Graphics/SVG/1.1/DTD/svg11.dtd"><svg t="1676268473832" class="icon" viewBox="0 0 1024 1024" version="1.1" xmlns="http://www.w3.org/2000/svg" p-id="4289" xmlns:xlink="http://www.w3.org/1999/xlink" width="200" height="200"><path d="M785.8 397.5v-65.3c0-70.9-27.8-137.7-78.2-188.2-50.4-50.4-117.3-78.2-188.2-78.2h-14.9c-70.9 0-137.7 27.8-188.2 78.2-50.4 50.4-78.2 117.3-78.2 188.2v65.3c-60.7 1.6-109.9 51.8-109.9 112.9v334.7c0 62.1 50.8 113 113 113h541.6c62.1 0 113-50.8 113-113V510.4c-0.1-61.1-49.3-111.3-110-112.9zM504.6 165.9h14.9c91.7 0 166.4 74.6 166.4 166.4v65.2H338.2v-65.2c0-91.8 74.6-166.4 166.4-166.4z m69.3 542.8v79.5c0 31.5-25.8 57.3-57.3 57.3-31.5 0-57.3-25.8-57.3-57.3v-77.1c-31.7-18.9-53-53.5-53-93.2 0-59.8 48.5-108.4 108.4-108.4S623 558.1 623 618c0 37.9-19.6 71.3-49.1 90.7z" p-id="4290" fill="#C7CEDD"></path></svg>