<?xml version="1.0" standalone="no"?><!DOCTYPE svg PUBLIC "-//W3C//DTD SVG 1.1//EN" "http://www.w3.org/Graphics/SVG/1.1/DTD/svg11.dtd"><svg t="1676364556432" class="icon" viewBox="0 0 1024 1024" version="1.1" xmlns="http://www.w3.org/2000/svg" p-id="3890" xmlns:xlink="http://www.w3.org/1999/xlink" width="200" height="200"><path d="M113.8 164.1h795.1c27.5 0 50-22.5 50-50s-22.5-50-50-50H113.8c-27.5 0-50 22.5-50 50s22.5 50 50 50zM113.8 959.9h795.1c27.5 0 50-22.5 50-50s-22.5-50-50-50H113.8c-27.5 0-50 22.5-50 50s22.5 50 50 50zM113.8 694.6h412.5c27.5 0 50-22.5 50-50s-22.5-50-50-50H113.8c-27.5 0-50 22.5-50 50s22.5 50 50 50zM113.8 429.4h412.5c27.5 0 50-22.5 50-50s-22.5-50-50-50H113.8c-27.5 0-50 22.5-50 50s22.5 50 50 50zM930.5 572.4L770.1 696.5C720 735.4 647 699.6 647 636.1V387.9c0-63.5 72.9-99.2 123.1-60.4l160.4 124.1c39.6 30.6 39.6 90.2 0 120.8z" p-id="3891" fill="#2879DA"></path></svg>