<?xml version="1.0" standalone="no"?><!DOCTYPE svg PUBLIC "-//W3C//DTD SVG 1.1//EN" "http://www.w3.org/Graphics/SVG/1.1/DTD/svg11.dtd"><svg t="1676364574985" class="icon" viewBox="0 0 1024 1024" version="1.1" xmlns="http://www.w3.org/2000/svg" p-id="4094" xmlns:xlink="http://www.w3.org/1999/xlink" width="200" height="200"><path d="M910.2 164.1H115.1c-27.5 0-50-22.5-50-50s22.5-50 50-50h795.1c27.5 0 50 22.5 50 50s-22.5 50-50 50zM910.2 959.9H115.1c-27.5 0-50-22.5-50-50s22.5-50 50-50h795.1c27.5 0 50 22.5 50 50s-22.5 50-50 50zM910.2 694.6H497.7c-27.5 0-50-22.5-50-50s22.5-50 50-50h412.5c27.5 0 50 22.5 50 50s-22.5 50-50 50zM910.2 429.4H497.7c-27.5 0-50-22.5-50-50s22.5-50 50-50h412.5c27.5 0 50 22.5 50 50s-22.5 50-50 50zM93.5 572.4l160.4 124.1C304 735.4 377 699.6 377 636.1V387.9c0-63.5-72.9-99.2-123.1-60.4L93.5 451.6c-39.6 30.6-39.6 90.2 0 120.8z" p-id="4095" fill="#2879DA"></path></svg>